<?xml version="1.0" encoding="UTF-8"?>
<!DOCTYPE svg PUBLIC "-//W3C//DTD SVG 1.1//EN" "http://www.w3.org/Graphics/SVG/1.1/DTD/svg11.dtd">
<!-- Creator: CorelDRAW 2020 (64-Bit) -->
<svg xmlns="http://www.w3.org/2000/svg" xml:space="preserve" width="214.468mm" height="214.468mm" version="1.1" style="shape-rendering:geometricPrecision; text-rendering:geometricPrecision; image-rendering:optimizeQuality; fill-rule:evenodd; clip-rule:evenodd"
viewBox="0 0 65254.84 65254.84"
 xmlns:xlink="http://www.w3.org/1999/xlink"
 xmlns:xodm="http://www.corel.com/coreldraw/odm/2003">
 <defs>
  <style type="text/css">
   <![CDATA[
    .fil0 {fill:#010101}
    .fil1 {fill:#FEFEFE}
   ]]>
  </style>
 </defs>
 <g id="Capa_x0020_1">
  <metadata id="CorelCorpID_0Corel-Layer"/>
  <path class="fil0" d="M-0 31282.13l0 3493.08c243.69,492.79 402.42,2763.73 527.81,3515.05 523.49,3136.33 1579.77,6138.81 2953.19,8923.07 5176.09,10493.02 16510.36,18004.42 29472.7,17925.83 9539.85,-57.87 17545.29,-4419.84 22406.95,-9234.94 5198.18,-5148.37 8176.99,-10897.41 9473.88,-18239.16 109.5,-620 319.3,-3228.49 420.31,-3489.79l0 -3096.1c-447.82,-1155.93 323.46,-4565.46 -3314.44,-12651.53 -742.5,-1650.39 -2010.55,-3608.21 -2984.26,-4948.01 -5598.62,-7703.7 -15212.22,-13391.01 -26437.57,-13357.09 -9741.7,29.42 -17461.86,4280.7 -22626.05,9226.39 -5129.44,4912.44 -8323.28,11288.85 -9493.9,18429.51 -104.58,637.89 -292.22,3212.18 -398.62,3503.7z"/>
  <path class="fil0" d="M14824.04 8990.86c-2995.09,2303.31 -2616.55,3949.81 -3440.44,5534.72 -434.67,836.21 -1121.55,754.09 -2154.34,2312.11 -677.81,1022.54 -989.04,2143.27 -744.41,3640.49l342.91 -445.66c529.36,-975.26 1237.78,-2678.26 2483.1,-3136.63 294.28,385.5 307.89,692.05 409.14,1181.95 102.08,494.06 232.18,944.77 272.04,1430.04 -1803.41,1190.5 -4141.04,4273.3 -5069.5,6459.81 -1388.3,3269.41 -291.79,6569.47 1634.3,8688.36 377.62,59.88 -55.5,47.47 244.48,-12.44l1113.3 -640.45c211.77,-159.86 412.1,-14.3 650.24,-52.76 793.49,-128.13 301.31,169.26 527.93,-373.06 -1796.83,-825.38 -2833.28,-4177.95 -1909.69,-6780.72 369.32,-1040.86 1220.07,-2188.76 1742.25,-2817.95l2234.37 -2371.13c412.28,182.53 1689.82,1563.49 2138.25,1920.61 352.46,280.65 465.98,360.68 717.27,724.88 -252.94,1263.15 -1785.52,3472.45 -2440.99,4447.01 -467.65,695.4 -2621.39,3496.52 -2745.07,4306.68 2198.34,1029.08 1327.17,2480.61 4798.52,-3242.21 536.24,-884.07 1459.77,-2409.23 1856.83,-3360.08 162.87,-389.95 383.86,-942.19 569.31,-1251.38l820.66 29.6c56.41,737.93 -1185.9,1513.87 -1116.74,4184.7 32.19,1243.1 967.35,3319.62 1709.94,3853.02 872.17,-413.74 1628.09,-2236.8 3344.57,-1394.14l1230.63 44.88c663.54,81.3 -628.88,-138.29 215.97,40.1l374.49 -119.09c7.3,-6.42 37.45,-21.69 54.19,-35.33 107.98,371.75 76.07,167.28 218.07,435.04 276.7,-231.12 97.27,56.17 151.31,-296.23 -652.31,-827.51 -1548.89,-2946.31 -1480.46,-4185.95 976.6,-102.48 3216.74,158.98 4374.29,214.05 1634.81,77.71 3133.56,134.67 4785.44,127.37 3208.59,-14.21 6245.67,-394.21 9431.04,-401.17 -82.49,4995.35 -3467.12,6383.26 -3884.91,6929.81 73.75,441.64 6.45,182.65 109.29,439.81 568.49,11.74 1404.55,402.21 1868.88,688.19l869.16 774.47c276.64,238.79 514.15,666.31 524.67,1038.79 429.44,-506.11 -177.17,-1902.41 1087.59,-2392.67 397.83,0 799.06,-5.14 1196.46,1.95 1174.58,20.96 1056.44,-6.79 1116.1,-314.4 -1300.55,-397.43 -3911.93,-841.57 -2968.86,-2617.28 1032.55,-1944.25 3244.46,789.87 3701.53,1019.68 847.62,-713.83 1607.43,-2364.01 1671.2,-3852.57 117.26,-2736.07 -998.93,-3035.28 -1271.67,-4291.32 394.81,-181.62 456.49,-283.7 905.55,-254.88 1044.27,2436.85 2126.5,4435.48 3527.52,6522.09 1371.75,2492.44 3630.67,4987.96 4043.07,8270.91 229.99,1830.91 -115.04,2266.22 -437.35,3648.83 -530.49,1463.66 -1869.34,2855.89 -2878.4,3513.62l521.17 2259.62c1630.34,-277 3647.64,-2841.92 4456.71,-4464.41 391.56,-785.25 722.57,-1893.22 929.28,-2129.7 -168.84,-1642.97 468.23,-3036.65 -763.67,-5724.07 -1551.99,-3385.82 -2919.33,-5456.47 -5072.94,-8415.29 -675.65,-928.31 -2182.15,-3088.19 -2120.48,-4591.84l2438.22 -2415.65c1203.24,955.18 3262.14,3348.19 3996.33,4763.35 1899.61,3661.46 -512.23,6663.51 -506.97,6896.73 180.76,481.32 928.1,1694.94 1220.71,1944.37 801.1,-403.7 1922.4,-2774.62 2180.24,-3772.15 1723.63,-6669.11 -5435.35,-11447.46 -5653.45,-11875.75 -73.72,-509.67 -28.63,-950.31 92.01,-1450.19l244.54 -792.06c172.37,-363.47 57.81,-153.96 200.18,-314.15 1525.64,554.04 2408.89,2314.9 3098.39,3808.36 777.79,-893.75 -75.91,-3110.5 -936.5,-4176.73 -1264.52,-1566.69 -1986.42,-833.38 -2658.63,-2996.52 -563.19,-1812.32 -957.52,-2445.16 -2046.54,-3498.58 -3522.93,-3407.64 -8917.35,-2824.37 -12245.09,-44.24 -3491.71,2917.14 -3664.14,6701.15 -4135.08,7079.99 -471.79,197.41 -2960.25,166.55 -3506.77,27.38 -157.4,-105.7 -740.79,-2008.33 -931.26,-2444.31 -1025.13,-2346.37 -2322.45,-4307.38 -4620.26,-5712.9 -3252.13,-1989.28 -7542.05,-1960.95 -10703.17,254.64z"/>
  <path class="fil1" d="M59803.03 45351.56c-374.03,-522.85 268.33,-1303.68 -465.34,-1831.95l-550.02 -655.75c-6.21,-11.56 -26.01,-30.3 -30.3,-61.31 -4.26,-30.61 -23.34,-39.28 -28.54,-61.16 -269.82,0 -755.28,34.11 -996.16,18.38 -419.15,-27.41 -382,99.89 -478.43,-319.33 -206.72,236.47 -537.73,1344.45 -929.28,2129.7 -809.07,1622.49 -2826.37,4187.41 -4456.71,4464.41l-521.17 -2259.62c1009.06,-657.73 2347.92,-2049.95 2878.4,-3513.62l-2572.65 282.54 -810.1 -2377.46c-2063.1,-260.75 -2660.98,397.73 -3455.11,1765.01 -809.68,1394.08 -916.6,2483.5 -1302.83,4139.03 -568.06,21.6 -1574.51,-251.57 -2010.4,-430.78 -27.14,-621.4 366.46,-2088.41 584.43,-2701.84 191.75,-324.89 139.6,-197.65 148.97,-652.13 -465.56,174.37 -4061.84,-0.55 -5107.57,0.37l-65.23 204.31c138.47,1318.74 2647.8,2984.04 4123.48,3458.7 2643.42,850.21 3685.56,438.9 4201.1,1453.65 204.16,401.75 381.43,1058.81 351.24,1622.55 -1197.31,52.03 -2203.48,55.44 -3343.65,-159.16 -891.83,-167.83 -2066.99,-694.85 -2678.26,-761.91l-5854.96 53.89c-5.36,862.38 47.19,129.89 -199.99,386.08 -581.78,177.14 -1477.23,1278 -2083.91,1422.71 -299.15,-856.6 -708.51,-3749.57 -831.46,-4773.85 -220.87,-1839.83 -372.18,-3523.69 -379.9,-5408.76 -6.51,-1581.17 285.55,-3673.2 1069.22,-4602.18 236.57,-280.41 1558.75,-698.68 1991.14,-816.1 1601.37,-434.95 1406.77,-517.22 2283.29,-786.28 417.79,-546.55 3802.42,-1934.45 3884.91,-6929.81 -3185.38,6.97 -6222.45,386.96 -9431.04,401.17 -1651.88,7.3 -3150.63,-49.66 -4785.44,-127.37 -1157.54,-55.07 -3397.69,-316.53 -4374.29,-214.05 -68.43,1239.63 828.15,3358.44 1480.46,4185.95 691.23,955.82 1861.58,2053.39 3129.21,2667.91 2611.71,1266.14 2694.81,563.32 3456.6,2423.34 1139.62,2782.62 588.9,7528.6 76.89,10507.29 -598.67,3482.85 -1163.23,6294.11 -3226.33,8515.88 -878.69,946.26 -2047.09,1965.76 -3915.43,1921.03 -901.11,-21.57 -1711.21,-196.49 -2314.42,-584.83 -322.79,-207.78 -1266.87,-964.88 -1480.37,-1335.84 2023.21,-1704.98 3622.51,202.06 5744.18,-1640.78 1422.44,-1235.53 1801.98,-2950.6 2365.96,-5005.45l35.9 -206.08c-1214.44,0 -4852.2,150.25 -5778.16,-70.13l-1074.72 443.37 -341.99 -2432.41c745.6,-576.03 1495.19,-940.51 2218.51,-1503.98 977.63,-761.48 1125.54,-1075.24 1785.15,-2080.16l37.79 -229.63 -4560.59 0c-809.92,113.89 -3646.03,3572.83 -4140.07,4016.9l-1709.33 -554.8c-304.87,-123.32 -314.7,-135.58 -523.58,-307.55 254.24,-1064.01 1641.78,-2433.23 2186.6,-3038.38 -78.65,-152.53 -192.9,-124.26 -704.55,-122.86 -292.76,0.85 -586.83,6.6 -880.54,6.69 -582.36,0.24 -1164.75,0 -1747.15,0 -189.98,180.43 -66.24,101.59 -273.69,217.52 -393.66,-32.89 -865.75,-150.28 -1241.89,-217.52 -3.56,-1718 205.2,-5194.89 -63.83,-6425.58 -1455.21,-625.78 -2607.33,-1186.42 -3560.23,-2203.51 -1926.09,-2118.9 -3022.59,-5418.95 -1634.3,-8688.36 928.46,-2186.51 3266.1,-5269.31 5069.5,-6459.81 -39.86,-485.27 -169.96,-935.98 -272.04,-1430.04 -101.26,-489.9 -114.86,-796.44 -409.14,-1181.95 -1245.32,458.37 -1953.74,2161.37 -2483.1,3136.63l-342.91 445.66c-244.63,-1497.22 66.6,-2617.95 744.41,-3640.49 1032.8,-1558.02 1719.67,-1475.9 2154.34,-2312.11 823.89,-1584.91 445.35,-3231.41 3440.44,-5534.72l-294.07 -46.4c-688.85,52.46 -3741.3,3175.12 -4528.25,4102.4 -4396.62,5180.71 -7225.4,11471.26 -7329.27,18928.02 -208.66,14982.62 10016.66,26616.54 22746.29,29693.96 13137.41,3175.97 25777.1,-2395.2 32831.81,-13542.96 291.82,-461.14 1394.05,-2622.12 1552.48,-2774.31z"/>
  <path class="fil1" d="M-0 31282.13c106.4,-291.52 294.04,-2865.81 398.62,-3503.7 1170.63,-7140.66 4364.46,-13517.07 9493.9,-18429.51 5164.19,-4945.7 12884.35,-9196.97 22626.05,-9226.39 11225.35,-33.93 20838.95,5653.39 26437.57,13357.09 973.71,1339.8 2241.76,3297.62 2984.26,4948.01 3637.91,8086.07 2866.63,11495.6 3314.44,12651.53l0 -31079.15 -65254.84 0 0 31282.13z"/>
  <path class="fil1" d="M-0 34775.21l0 30479.63 65254.84 0 0 -31079.58c-101.02,261.3 -310.81,2869.79 -420.31,3489.79 -1296.9,7341.75 -4275.71,13090.8 -9473.88,18239.16 -4861.66,4815.11 -12867.1,9177.07 -22406.95,9234.94 -12962.34,78.59 -24296.61,-7432.82 -29472.7,-17925.83 -1373.42,-2784.26 -2429.7,-5786.74 -2953.19,-8923.07 -125.39,-751.32 -284.12,-3022.26 -527.81,-3515.05z"/>
  <path class="fil1" d="M14529.97 8944.46l294.07 46.4c3161.13,-2215.59 7451.04,-2243.92 10703.17,-254.64 2297.81,1405.52 3595.13,3366.53 4620.26,5712.9 190.47,435.98 773.87,2338.61 931.26,2444.31 546.52,139.17 3034.98,170.02 3506.77,-27.38 470.94,-378.84 643.37,-4162.86 4135.08,-7079.99 3327.74,-2780.13 8722.17,-3363.4 12245.09,44.24 1089.02,1053.42 1483.35,1686.26 2046.54,3498.58 672.21,2163.14 1394.11,1429.83 2658.63,2996.52 860.58,1066.23 1714.29,3282.98 936.5,4176.73 -689.49,-1493.45 -1572.74,-3254.32 -3098.39,-3808.36 -142.37,160.2 -27.81,-49.32 -200.18,314.15l-244.54 792.06c-120.64,499.88 -165.73,940.51 -92.01,1450.19 218.1,428.28 7377.07,5206.63 5653.45,11875.75 -257.83,997.53 -1379.14,3368.45 -2180.24,3772.15 -292.61,-249.44 -1039.95,-1463.06 -1220.71,-1944.37 -5.26,-233.22 2406.58,-3235.27 506.97,-6896.73 -734.19,-1415.16 -2793.09,-3808.17 -3996.33,-4763.35l-2438.22 2415.65c-61.67,1503.64 1444.83,3663.53 2120.48,4591.84 2153.61,2958.82 3520.95,5029.46 5072.94,8415.29 1231.91,2687.42 594.84,4081.1 763.67,5724.07 96.42,419.22 59.27,291.91 478.43,319.33 240.89,15.73 726.34,-18.38 996.16,-18.38 5.2,21.88 24.28,30.55 28.54,61.16 4.29,31 24.1,49.75 30.3,61.31l550.02 655.75c733.67,528.26 91.31,1309.1 465.34,1831.95 243.72,-813.36 649.73,-1484.05 915.23,-2264.37 2265.71,-6658.46 2513.77,-11844.44 688.58,-18783.55 -1650.3,-6274.21 -5961.42,-11606.59 -9919.9,-14884.65 -4467.39,-3699.58 -10985.07,-6503.44 -18206.94,-6627.03 -3882.63,-66.42 -7631.77,519.35 -10720.88,1696.12 -1661.25,632.87 -7359.18,3219.27 -8029.14,4456.38z"/>
  <path class="fil0" d="M22812.26 31826.25c2337.06,2161.49 -2855.04,3102.22 -4541.85,3293.94 -1355.22,154.02 -2954.74,148.69 -4146.91,-189.34 -831.95,-235.9 -2702.2,-787.86 -3030.72,-1353.49 -226.62,542.32 265.56,244.93 -527.93,373.06 -238.15,38.46 -438.48,-107.1 -650.24,52.76l-1113.3 640.45c-299.97,59.91 133.15,72.32 -244.48,12.44 952.9,1017.1 2105.02,1577.73 3560.23,2203.51 4213.21,1924.72 12057.27,240.92 14180.82,680.24 1418.82,293.52 2787.88,2809.79 3031.66,4684.3 153.56,1180.85 89.67,2684.43 13.57,3882.38 -108.59,1708.14 -348.93,2307.05 -449.92,3257.67 -563.98,2054.85 -943.52,3769.93 -2365.96,5005.45 -2121.67,1842.84 -3720.97,-64.2 -5744.18,1640.78 213.5,370.96 1157.57,1128.06 1480.37,1335.84 603.2,388.33 1413.31,563.25 2314.42,584.83 1868.34,44.73 3036.74,-974.77 3915.43,-1921.03 2063.1,-2221.77 2627.66,-5033.02 3226.33,-8515.88 512.02,-2978.69 1062.73,-7724.67 -76.89,-10507.29 -761.79,-1860.03 -844.88,-1157.21 -3456.6,-2423.34 -1267.63,-614.52 -2437.98,-1712.1 -3129.21,-2667.91 -54.04,352.4 125.39,65.11 -151.31,296.23 -142,-267.75 -110.08,-63.29 -218.07,-435.04 -16.73,13.63 -46.89,28.91 -54.19,35.33l-374.49 119.09c-844.85,-178.39 447.57,41.2 -215.97,-40.1l-1230.63 -44.88z"/>
  <path class="fil1" d="M49701.87 35101.47l2388.72 -365.27c403.45,533.19 819.69,1326.99 1009.43,1948.63 -1816.61,901.08 -4180.53,1152.46 -6660.32,1114.16 -1820.17,-28.08 -6005.97,-518.62 -7426.55,-205.83 -1651.18,363.57 -2837.11,2778.6 -3083.36,4641.8 -157.58,1192.17 -125.69,2454.47 -43.97,3665.38 82.97,1229.44 376.28,2457.24 348.11,3643.84 247.18,-256.19 194.64,476.3 199.99,-386.08l5854.96 -53.89c-18.83,-20.36 -51.85,-75.28 -62.31,-55.16 -10.41,19.99 -48.71,-42.99 -63.47,-53.12l-507.51 -273.26c-302.17,-148.63 -395.18,-211.8 -618.36,-356.26 -1249.95,-809.25 -3259.22,-2482.98 -4313.22,-3522.35 -482.29,-475.57 -469.42,-692.08 -421.86,-1562.22 56.59,-1036.23 332.74,-2321.6 784.33,-3166.6 589.66,-53.19 1445.99,82.7 1916.9,285.03 160.23,648.97 98.28,2531.75 631.59,3090.11l65.23 -204.31c1045.73,-0.91 4642.01,174.01 5107.57,-0.37 -9.37,454.48 42.78,327.24 -148.97,652.13 1714.62,-5672.1 7898.86,-5715.52 7603.36,-2061.09 -72.38,894.99 -346.71,1015.79 -609.35,1667.13l2572.65 -282.54c322.31,-1382.61 667.34,-1817.92 437.35,-3648.83 -412.4,-3282.95 -2671.32,-5778.47 -4043.07,-8270.91 155.69,370.23 64.11,183.56 169.72,307 -149.61,341.2 -109.41,228.41 -374.28,427 -178.09,133.51 -135.73,65.93 -313.42,205.23 -680.12,533.1 -513.08,2371.35 -73.6,2738.71 -140.57,59.54 -148.63,90.82 -326.29,81.94z"/>
  <path class="fil1" d="M11092.78 33577.35c328.51,565.63 2198.77,1117.59 3030.72,1353.49 1192.17,338.04 2791.69,343.36 4146.91,189.34 1686.81,-191.72 6878.9,-1132.44 4541.85,-3293.94 -1716.48,-842.66 -2472.39,980.4 -3344.57,1394.14 -742.59,-533.41 -1677.74,-2609.92 -1709.94,-3853.02 -69.16,-2670.83 1173.15,-3446.77 1116.74,-4184.7l-820.66 -29.6c-185.45,309.19 -406.44,861.43 -569.31,1251.38 -397.07,950.86 -1320.6,2476.01 -1856.83,3360.08 -3471.35,5722.82 -2600.18,4271.29 -4798.52,3242.21 123.68,-810.16 2277.42,-3611.28 2745.07,-4306.68 655.48,-974.56 2188.06,-3183.85 2440.99,-4447.01 -251.29,-364.2 -364.81,-444.23 -717.27,-724.88 -448.42,-357.12 -1725.97,-1738.08 -2138.25,-1920.61l-2234.37 2371.13c-522.18,629.19 -1372.93,1777.09 -1742.25,2817.95 -923.59,2602.77 112.85,5955.34 1909.69,6780.72z"/>
  <path class="fil0" d="M36233.94 49544.17c28.17,-1186.6 -265.14,-2414.4 -348.11,-3643.84 -81.73,-1210.91 -113.61,-2473.21 43.97,-3665.38 246.24,-1863.19 1432.17,-4278.23 3083.36,-4641.8 1420.58,-312.78 5606.38,177.75 7426.55,205.83 2479.79,38.31 4843.71,-213.08 6660.32,-1114.16 -189.74,-621.64 -605.97,-1415.44 -1009.43,-1948.63l-2388.72 365.27c-874.97,61.07 -1732.39,106.55 -2610.71,43.48 -715.81,-51.42 -1327.41,-237.3 -2036.69,-329.09 -59.67,307.61 58.48,335.36 -1116.1,314.4 -397.4,-7.09 -798.63,-1.95 -1196.46,-1.95 -1264.77,490.26 -658.15,1886.56 -1087.59,2392.67 -10.53,-372.48 -248.04,-800 -524.67,-1038.79l-869.16 -774.47c-464.34,-285.98 -1300.4,-676.44 -1868.88,-688.19 -102.84,-257.16 -35.54,1.83 -109.29,-439.81 -876.53,269.06 -681.92,351.33 -2283.29,786.28 -432.39,117.42 -1754.57,535.69 -1991.14,816.1 -783.66,928.98 -1075.73,3021.01 -1069.22,4602.18 7.73,1885.07 159.04,3568.93 379.9,5408.76 122.95,1024.28 532.31,3917.25 831.46,4773.85 606.67,-144.71 1502.12,-1245.57 2083.91,-1422.71z"/>
  <path class="fil1" d="M13422.78 43502.67c-249.22,-750.56 -729.66,-1664.63 -450.59,-2686.44 644.98,-2361.34 5108.57,-1296.68 6019.51,76.8 -218.49,376.8 -953.38,1098 -1372.9,1265.19 -865.21,-441.46 -1636.85,-1251.59 -3087.8,-1075.42l-834.54 2202.36c582.39,0 1164.79,0.24 1747.15,0 293.71,-0.09 587.78,-5.84 880.54,-6.69 511.65,-1.4 625.9,-29.67 704.55,122.86 921.65,-929.56 1882.21,-1702.76 2897.24,-2595.01 1180.64,-1037.91 1796.07,-1878.1 2656.38,-2853.18 1101.38,-0.58 2102.19,-129.98 3132.25,39.74 896.03,147.66 1920.55,503.98 1906.34,1268.78 -164.36,492.39 -1943,585.44 -3421.82,1684.62 -861.52,640.35 -2558.44,1740.09 -2984.01,2338.88l4560.59 0 -37.79 229.63c495.77,-1160.86 241.22,-2218.61 525.13,-3099.54 425.03,-199.23 1258.77,-375.13 1862.98,-360.19 314.94,1026.68 710.79,1879.81 798.27,3013.4 59.67,773.01 66.03,1211.37 -319.72,1636 -366.33,403.24 -638.07,638.53 -991.87,962.69 -705.25,646.26 -1346.07,1257.89 -2107.79,1805.05 -467.81,336.06 -685.33,488.98 -1156.54,805.45 -240.79,161.69 -317.65,240.25 -584.77,387.91 -138.2,76.4 -156.06,66.79 -289.42,150.98l-323.22 271.43c925.97,220.38 4563.72,70.13 5778.16,70.13l-35.9 206.08c100.99,-950.61 341.32,-1549.53 449.92,-3257.67 76.1,-1197.95 139.99,-2701.53 -13.57,-3882.38 -243.78,-1874.51 -1612.85,-4390.78 -3031.66,-4684.3 -2123.55,-439.33 -9967.61,1244.47 -14180.82,-680.24 269.03,1230.69 60.27,4707.58 63.83,6425.58 376.13,67.24 848.23,184.63 1241.89,217.52z"/>
  <path class="fil0" d="M18797.18 50112.66l46.64 -2333.1c-4416.46,-232.61 -7925.69,-2075.42 -8261.11,-6349.21 -148.54,-1892.98 358.24,-2832.03 526.44,-4394.74 -484.75,-220.23 -1522.39,-836.54 -2082.23,-933.7 -727.47,1157.97 -1294.8,3621.72 -1126.05,5321.95 322.64,3251.07 2719.91,6310.66 5381.13,7618.6 1410.24,693.14 3622.3,1241.92 5515.19,1070.19z"/>
  <path class="fil0" d="M42288.9 49104.21c611.27,67.06 1786.43,594.08 2678.26,761.91 1140.17,214.6 2146.34,211.19 3343.65,159.16 30.18,-563.74 -147.08,-1220.8 -351.24,-1622.55 -515.55,-1014.75 -1557.68,-603.45 -4201.1,-1453.65 -1475.68,-474.65 -3985.01,-2139.95 -4123.48,-3458.7 -533.31,-558.36 -471.37,-2441.14 -631.59,-3090.11 -470.91,-202.34 -1327.23,-338.22 -1916.9,-285.03 -451.59,845 -727.74,2130.37 -784.33,3166.6 -47.56,870.14 -60.43,1086.65 421.86,1562.22 1054,1039.37 3063.27,2713.1 4313.22,3522.35 223.18,144.46 316.19,207.63 618.36,356.26l507.51 273.26c14.76,10.13 53.06,73.11 63.47,53.12 10.47,-20.11 43.48,34.81 62.31,55.16z"/>
  <path class="fil0" d="M13925.73 50025.7c140.21,1571.56 1003.95,3497.92 1974.86,4445.85 1312.93,1281.87 3074.44,1556.77 4979.5,884.53 1723.29,-608.07 2765.46,-1650.54 4126.13,-2394.41 801.1,-437.96 1625.11,-553.3 2355.68,-910.94 547.4,-268 938.56,-1507.3 990.17,-2211.73 -3907.55,-234.56 -4726.69,1760.2 -7466.53,2910.56 -3400.98,1427.94 -3473.03,-1279.95 -4821.8,-2146.62 -419.15,-269.33 -1502.7,-562.1 -2138.01,-577.25z"/>
  <path class="fil0" d="M17028.71 43401.32c-544.82,605.15 -1932.35,1974.37 -2186.6,3038.38 208.88,171.97 218.71,184.23 523.58,307.55l1709.33 554.8c494.03,-444.07 3330.14,-3903.01 4140.07,-4016.9 425.57,-598.79 2122.49,-1698.53 2984.01,-2338.88 1478.82,-1099.19 3257.46,-1192.23 3421.82,-1684.62 14.21,-764.8 -1010.31,-1121.12 -1906.34,-1268.78 -1030.06,-169.72 -2030.87,-40.32 -3132.25,-39.74 -860.31,975.08 -1475.74,1815.27 -2656.38,2853.18 -1015.03,892.26 -1975.59,1665.45 -2897.24,2595.01z"/>
  <path class="fil0" d="M37195.27 52812.13c-612.36,278.68 -1126.45,930.41 -1787.61,1292.52 207.3,909.96 1892.19,2525.88 2473.88,2957.88 1213.65,901.35 2709.6,1096.17 4413.11,575.03 2692.13,-823.61 3803.7,-5456.34 3680.5,-7142.58 -526.19,-107.07 -1833.07,-386.39 -2315.27,-318.99 -395.6,1966.64 -423.57,4187.2 -2057.44,5012 -1288.41,650.43 -2702.32,-641.48 -3441.69,-1448.12 -258.11,-281.48 -561.95,-710.12 -965.49,-927.73z"/>
  <path class="fil1" d="M45054.48 34815.86c709.27,91.8 1320.87,277.67 2036.69,329.09 878.32,63.07 1735.74,17.59 2610.71,-43.48 177.66,8.88 185.72,-22.39 326.29,-81.94 -439.48,-367.37 -606.52,-2205.61 73.6,-2738.71 177.69,-139.29 135.34,-71.72 313.42,-205.23 264.86,-198.59 224.67,-85.8 374.28,-427 -105.61,-123.44 -14.03,63.23 -169.72,-307 -1401.02,-2086.62 -2483.25,-4085.24 -3527.52,-6522.09 -449.06,-28.81 -510.74,73.27 -905.55,254.88 272.74,1256.03 1388.94,1555.25 1271.67,4291.32 -63.77,1488.55 -823.58,3138.73 -1671.2,3852.57 -457.07,-229.81 -2668.98,-2963.93 -3701.53,-1019.68 -943.07,1775.72 1668.31,2219.85 2968.86,2617.28z"/>
  <path class="fil0" d="M45495.51 55756.52c4835.01,172.49 7221.11,-5169.03 4874.96,-9444.1 -399.77,-728.41 -1689.61,-2837.08 -2408.13,-3179.11l-798.57 1528.56c-408.29,884.31 -275.36,923.17 188.37,1630.46 3756.45,5729.42 -769.7,6084.25 -1439.35,7552.3 -178.18,390.55 -414.93,1389.27 -417.27,1911.88z"/>
  <path class="fil0" d="M36624.53 59116.06c-107.59,-631.74 -3867.9,-3302.7 -844.61,-6043.42 758.11,-687.27 2182.58,-1118.45 3447.19,-598.52 1190.74,489.56 2474.55,1474.34 2970.99,1591.24 346.8,-445.96 621.7,-1369.13 632.69,-2079.01 -734.62,-698.01 -2902.71,-1878.68 -3988.09,-2089.84 -1908.1,-371.23 -3442.54,549.56 -4300.44,1612.85 -2091.94,2592.94 -1853.4,7112.39 2082.26,7606.7z"/>
  <path class="fil0" d="M25737.88 43514.78c-659.61,1004.92 -807.52,1318.68 -1785.15,2080.16 -723.33,563.47 -1472.91,927.95 -2218.51,1503.98l341.99 2432.41 1074.72 -443.37 323.22 -271.43c133.36,-84.19 151.22,-74.58 289.42,-150.98 267.11,-147.66 343.97,-226.22 584.77,-387.91 471.21,-316.47 688.73,-469.39 1156.54,-805.45 761.73,-547.16 1402.54,-1158.79 2107.79,-1805.05 353.8,-324.16 625.54,-559.45 991.87,-962.69 385.75,-424.63 379.39,-862.99 319.72,-1636 -87.48,-1133.6 -483.32,-1986.73 -798.27,-3013.4 -604.21,-14.94 -1437.95,160.96 -1862.98,360.19 -283.91,880.94 -29.36,1938.68 -525.13,3099.54z"/>
  <path class="fil0" d="M44658.81 43937.83c-217.98,613.43 -611.57,2080.44 -584.43,2701.84 435.89,179.21 1442.34,452.38 2010.4,430.78 386.23,-1655.53 493.15,-2744.95 1302.83,-4139.03 794.13,-1367.27 1392.01,-2025.76 3455.11,-1765.01l810.1 2377.46c262.64,-651.34 536.97,-772.13 609.35,-1667.13 295.5,-3654.43 -5888.73,-3611.01 -7603.36,2061.09z"/>
  <path class="fil1" d="M27394.18 19522.13c-3589.89,698.68 -3662.61,6216.03 -300.67,5165.53 1123.41,-351.06 2160.7,-1504.16 2564.04,-2645.12 600.59,-1698.92 -584.34,-2847.19 -2263.36,-2520.41z"/>
  <path class="fil0" d="M37503.12 39390.5c1579.89,521.72 2290.29,771.19 3607.54,1608.28 582.82,370.38 1001.73,608.74 1576.55,1041.98 474.59,357.63 1177.05,953.26 1725,1074.48l1081.57 -1993.54c-313.64,-442.92 -1210.94,-1249.98 -1561.58,-1636.3 -655.63,-722.32 -773.04,-1219.86 -1756.21,-1513.17 -1785.61,-532.74 -4152.14,-15.12 -4672.86,1418.27z"/>
  <path class="fil1" d="M37898.69 19575.16c-1363.9,572.44 -398.34,2636.88 147.45,3392 386.57,534.84 2169.71,2309.46 3266.25,1484.69 646.01,-485.88 1073.87,-2378.68 105.52,-3657.11 -596.18,-787.1 -2078.22,-1824.34 -3519.21,-1219.58z"/>
  <path class="fil0" d="M19685.21 52773.33l2048.06 -906.13c120.18,-1812.26 -712.83,-5768.85 -1026.04,-7532.86 -460.29,113.73 -515.91,275.02 -845.92,543.33 -1035.59,841.81 -884.41,277.64 -702.42,3081.47l526.32 4814.19z"/>
  <path class="fil0" d="M13422.78 43502.67c207.45,-115.92 83.7,-37.09 273.69,-217.52l834.54 -2202.36c1450.95,-176.17 2222.59,633.97 3087.8,1075.42 419.52,-167.19 1154.41,-888.39 1372.9,-1265.19 -910.94,-1373.48 -5374.53,-2438.13 -6019.51,-76.8 -279.07,1021.81 201.36,1935.88 450.59,2686.44z"/>
  <path class="fil0" d="M28659.52 59094.55c3634.38,-214.81 4037.32,-5085.84 2554.06,-6877.41 -742.16,869.95 -522.6,2750.06 -693.78,3978.08 -200.33,1437.07 -1619.51,2004.83 -1860.27,2899.34z"/>
  <path class="fil1" d="M22678.14 27246.82l-73.51 -1430.96 -1657.36 15.18c62.4,211.89 500.33,591.16 668.35,733.19 328.09,277.37 570.89,552.73 1062.52,682.59z"/>
 </g>
</svg>
